<?xml version="1.0" encoding="utf-8"?>
<!-- Generator: Adobe Illustrator 24.1.2, SVG Export Plug-In . SVG Version: 6.00 Build 0)  -->
<svg version="1.1" id="Capa_1" xmlns="http://www.w3.org/2000/svg" xmlns:xlink="http://www.w3.org/1999/xlink" x="0px" y="0px"
	 viewBox="0 0 1000 1000" style="enable-background:new 0 0 1000 1000;" xml:space="preserve">
<style type="text/css">
	.st0{clip-path:url(#SVGID_2_);}
	.st1{clip-path:url(#SVGID_4_);fill:#F1F1F4;}
	.st2{clip-path:url(#SVGID_4_);fill:#313130;}
</style>
<g>
	<g>
		<defs>
			<rect id="SVGID_1_" x="-405.67" y="-768.25" width="1786.4" height="2319.03"/>
		</defs>
		<clipPath id="SVGID_2_">
			<use xlink:href="#SVGID_1_"  style="overflow:visible;"/>
		</clipPath>
		<g class="st0">
			<defs>
				<rect id="SVGID_3_" x="-405.67" y="-768.25" width="1786.4" height="2319.03"/>
			</defs>
			<clipPath id="SVGID_4_">
				<use xlink:href="#SVGID_3_"  style="overflow:visible;"/>
			</clipPath>
			<path class="st1" d="M504.5,910.18c28.45-34.95,58.71-67.77,83.8-104.18c24.53-35.6,23.23-74.74,2.73-113.66
				c-28.48-54.05-23.98-106.5,11.52-156.17c3.08-4.3,6.3-10.01,10.68-11.53c7.74-2.68,16.42-2.64,24.71-3.74
				c0.58,8.99,4.21,19.26,1.1,26.69c-6.05,14.46-17.82,26.53-23.75,41.02c-11.47,28.04-8.97,56.65,5.63,83.02
				c33.16,59.91,27.42,117.71-12.88,170.38c-27.77,36.3-61.12,68.32-92.25,102c-8.77,9.49-20.09,13-29.63,2.41
				c-35.11-38.97-69.59-78.53-103.89-118.22c-4.66-5.39-7.16-12.73-10.38-19.31c-5.42-11.07-5.1-23.07,7.31-26.44
				c6.77-1.84,20.52,3.93,23.74,10.12c22.62,43.52,57.14,76.7,91.08,110.55C495.39,904.51,497.27,905.36,504.5,910.18"/>
			<path class="st1" d="M143.33,295.46c13.28,38.5,23.96,76.42,39.33,112.31c20.03,46.77,55.71,72.08,108.78,73.16
				c58.72,1.19,109.99,41.34,127.65,95.8c4.08,12.58,7.11,27.23-10.53,30.14c-6.41,1.06-18.78-7.52-21.41-14.4
				c-19.88-52.02-57.58-75.08-111.95-77.08c-47.8-1.75-84.46-25.44-110.41-65.5c-32.56-50.27-43.85-108.36-58.11-165.13
				c-1.49-5.93,7.53-19.74,14.06-21.64c55.4-16.21,110.68-34.78,169.61-31.01c8.21,0.53,18.9,4.67,23.44,10.85
				c8.78,11.93-3.15,22.28-21.79,24.88c-45.82,6.4-91.35,14.83-136.98,22.58C152.54,290.84,150.26,292.42,143.33,295.46"/>
			<path class="st1" d="M853.38,293.03c-49.12-14.02-96.63-29.42-147.31-25.18c-36.86,3.08-64.32,21.93-83.88,53.74
				c-29.75,48.36-73.71,71.49-130.31,69.68c-9.2-0.29-19.66-0.59-27.09-5.02c-6.43-3.82-13.85-14.45-12.62-20.35
				c1.19-5.74,12.48-12.41,19.91-13.2c16.85-1.8,34.32,1.72,51.07-0.49c26.3-3.48,48.53-17.89,61.57-40.35
				c44.7-76.97,112.86-90.86,192.46-74.94c33.17,6.64,65.81,15.95,98.67,24.16c12.41,3.1,22,10.39,17.65,24.03
				c-16.35,51.24-33.76,102.13-51.24,152.99c-2.1,6.11-5.85,13.35-10.98,16.3c-7.55,4.33-17.03,5.27-25.69,7.66
				c-1.46-8.77-6.42-18.8-3.8-26.09c14.76-41.12,31.46-81.53,47.16-122.31C851.24,307.64,851.73,300.92,853.38,293.03"/>
			<path class="st1" d="M858.56,702.05c-17.56-45.46-31.21-89.44-51.28-130.24c-19.15-38.93-55.22-55.38-98.72-56.23
				c-57.76-1.13-109.99-40.75-127.76-95.26c-3.93-12.06-6.89-24.71,8.09-30.53c15.25-5.92,20.98,5.18,25.61,17.45
				c17.99,47.72,52.88,71.42,103.47,73.23c48.35,1.73,87.1,22.24,114.38,62.58c34.76,51.39,46.4,111.49,60.98,170.23
				c1.36,5.49-6.17,18.04-11.79,19.68c-55.37,16.12-110.44,34.81-169.4,32.05c-13.65-0.64-29.05-0.55-27.76-19.92
				c1.2-17.99,15.75-16.18,28.73-15.75C761.03,730.92,806.15,717.59,858.56,702.05"/>
			<path class="st1" d="M145.61,708.66c47.21,7.19,92.04,16.81,137.33,20.09c41.71,3.02,73.06-18.64,95.26-54.63
				c32.62-52.9,89.7-77.55,148.75-66.23c12.86,2.47,24.55,6.6,22.06,22.35c-2.63,16.69-16.12,15.08-28.31,13.06
				c-45.96-7.62-84.41,6.57-108.61,46.05c-41.01,66.89-101.15,84.84-173.18,73.07c-39.22-6.41-77.87-16.94-116.14-27.87
				c-7.22-2.06-17.54-16.29-16.05-22.35c13.76-56.22,25.62-113.36,56.7-163.6c1.4-2.26,2.99-4.41,4.55-6.57
				c7.24-10,17.91-15.29,26.77-6.16c4.84,4.99,5.38,18.23,2.65,25.88c-15.37,43.07-32.38,85.55-48.64,128.31
				C147.38,693.63,147.38,697.75,145.61,708.66"/>
			<path class="st1" d="M494.98,87.5c-27.7,33.78-57.45,66.09-82.52,101.73c-25.98,36.93-24.17,76.84-2.92,117.16
				c26.9,51.03,22.52,101.47-8.76,149.62c-3.6,5.55-8.06,10.63-12.68,15.39c-8.45,8.68-19.84,12.85-27.33,2.16
				c-4.04-5.78-2.2-18.41,1.18-26.11c5.78-13.2,16.76-24.17,22.11-37.46c11.85-29.42,9.19-59.02-6.15-86.75
				c-31.49-56.91-27.22-112.86,10.51-163.46c28.89-38.75,63.67-73.19,97.22-108.21c4.66-4.85,21.22-6.17,25.69-2.01
				c41.38,38.52,83.18,77.04,111.1,127.38c6.59,11.88,17.05,26.94-0.11,36.78c-18.85,10.81-23.03-8.14-31.76-19.59
				c-27.64-36.27-56.79-71.37-85.35-106.93C501.8,87.31,498.39,87.4,494.98,87.5"/>
			<path class="st1" d="M499.73,664.15c55.29-0.23,95.46,52.23,79.94,105.55c-11.44,39.31-39.72,67.36-68.31,94.23
				c-4.46,4.19-21.55,2.76-25.91-2.19c-21.03-23.83-43.47-47.7-58.41-75.36C396.39,729.63,436.7,664.42,499.73,664.15
				 M495.69,824.92c2.74,0.03,5.46,0.06,8.2,0.08c13.49-20.79,28.68-40.69,39.93-62.63c9.33-18.19,0.63-40.82-15.87-52.92
				c-16.94-12.41-38.69-12.43-55.73-0.05c-16.79,12.21-25.67,34.6-16.41,52.74C467.05,784.13,482.22,804.09,495.69,824.92"/>
			<path class="st1" d="M288.53,540c43.8,0.34,79.73,37.19,79.32,84.32c-0.42,48.44-38.14,84.56-90.55,82.38
				c-28.16-1.17-56.12-8.54-84.03-13.88c-13.72-2.62-19.23-12.82-14.63-25.44c10.66-29.21,20.5-59.08,34.85-86.48
				C227.94,553.32,253.27,538.92,288.53,540 M217.91,666.37c29.03,0.62,55.12,3.45,80.7,0.98c18.97-1.83,33.2-22.3,33.54-41.82
				c0.34-20.21-8.68-36.03-27.14-45.01c-18.54-9.02-36.65-7.02-51.32,7.62C233.88,607.91,225.54,633.47,217.91,666.37"/>
			<path class="st1" d="M716.4,539.86c30.37,0.38,55.44,13.16,69.13,39.71c14.53,28.19,25.14,58.61,35.02,88.86
				c1.95,5.97-6.21,21.68-11.43,22.55c-36.31,6.06-73.43,14.67-109.61,12.23c-43.96-2.96-71.4-44.43-67.36-88.72
				C636.06,571.79,672.32,539.69,716.4,539.86 M729.43,671.13c9.51-1.55,24.85-3.03,39.48-7.08c4.17-1.15,10.1-11.33,8.72-14.69
				c-8.03-19.57-15.36-40.35-27.89-56.96c-21.32-28.25-64.28-20.3-78.15,12.43C657.12,639.03,682.79,671.72,729.43,671.13"/>
			<path class="st1" d="M712.88,456.49c-42.72,0.2-79.03-33.59-80.93-78.41c-1.98-46.78,30.88-86.24,77.43-86.27
				c32.74-0.02,65.59,7.18,98.16,12.55c12.32,2.03,18.02,12.43,13.58,24.41c-11.07,29.85-21.21,60.36-35.74,88.52
				C771.68,443.84,746.91,457,712.88,456.49 M719.96,421.06c3.7-1.29,12.82-2.47,19.45-7.18c24.3-17.24,31.62-44.79,39.54-71.45
				c0.72-2.41-5.18-9.56-8.56-9.98c-20.23-2.52-40.71-5.74-60.94-4.82c-25.32,1.16-43.16,24.02-41.74,48.96
				C669.1,400.97,690.38,420.93,719.96,421.06"/>
			<path class="st1" d="M272.7,288.07c66.96,0.15,109.93,52.36,90.97,112.29c-17.64,55.75-91.05,76.04-133.42,36.1
				c-32.08-30.23-42.22-71.77-51.85-112.62c-1.22-5.19,9.46-17.6,16.58-19.57C220.43,297.22,246.72,293.23,272.7,288.07
				 M276.89,420.91c32.24,0.62,54.08-19.59,55.44-45.12c1.32-24.73-16.96-48.06-42.67-48.03c-23,0.03-45.99,6.23-68.98,9.7
				c10.82,23.65,20.16,48.18,33.26,70.47C258.65,415.93,272.44,418.56,276.89,420.91"/>
			<path class="st1" d="M499.47,332.29c-59.77-0.17-101.63-60.63-75.14-114.82c15.13-30.95,40.48-57.13,63.12-83.84
				c3.65-4.31,21.49-3.93,25.46,0.66c22.07,25.49,46.4,50.64,61.51,80.24C602.75,270.03,561.05,332.46,499.47,332.29 M503.98,172.59
				c-2.91,0.02-5.81,0.04-8.72,0.06c-13.04,19.68-27.83,38.44-38.61,59.29c-10.27,19.88-2.76,41.16,14.88,54.84
				c16.48,12.78,40.92,12.72,57.29-0.15c16.89-13.28,24.41-35.88,14.17-55.12C531.98,210.81,517.15,192.14,503.98,172.59"/>
			<path class="st1" d="M702.49,898.45c-27.46,0.14-49.88-21.84-49.81-48.84c0.06-27.15,22.37-49.06,49.74-48.86
				c26.63,0.2,47.94,21.24,48.42,47.8C751.33,876.16,729.87,898.31,702.49,898.45 M702.06,866.41c5.59-7.92,11.42-12.68,11.69-17.75
				c0.19-3.62-7.08-7.64-11.02-11.48c-3.96,4.28-10.2,8.1-11.14,12.97C690.88,853.85,696.9,858.86,702.06,866.41"/>
			<path class="st1" d="M144.67,499.15c-0.55,27.59-22.52,48.81-50.05,48.33c-27.12-0.47-48.56-23.31-47.58-50.69
				c0.96-26.8,22.23-47.31,48.99-47.22C123.53,449.65,145.22,471.77,144.67,499.15 M112.93,498.5
				c-7.57-5.73-12.45-12.26-16.96-12.02c-4.26,0.23-11.34,7.61-11.31,11.79c0.04,4.35,6.89,11.75,11.19,12.07
				C100.33,510.69,105.31,504.15,112.93,498.5"/>
			<path class="st1" d="M297.32,800.47c27.24-0.41,49.02,21.25,49.32,49.07c0.29,26.52-20.61,48.1-47.35,48.89
				c-27.41,0.81-49.88-20.55-50.38-47.88C248.42,823.2,270,800.88,297.32,800.47 M281.03,849.37c6.84,5.38,11.34,11.61,15.06,11.17
				c4.89-0.57,9.18-6.38,13.72-9.94c-3.73-4.63-7.12-12.54-11.3-12.99C294.07,837.13,288.88,843.73,281.03,849.37"/>
			<path class="st1" d="M903.4,449.58c26.46-0.47,48.8,20.82,49.57,47.23c0.79,27.23-21.02,50.09-48.37,50.69
				c-26.45,0.58-48.47-20.63-49.21-47.39C854.62,472.14,875.58,450.06,903.4,449.58 M920.96,499.9c-7.81-6.42-12.03-12.54-16.81-13
				c-3.82-0.37-12.07,6.66-11.67,9.47c0.73,5.21,5.58,12.42,10.14,13.7C906.46,511.15,912.32,505.01,920.96,499.9"/>
			<path class="st1" d="M298.4,98.81c27.16,0.2,47.93,20.89,48.25,48.04c0.32,27.6-21.55,49.29-49.53,49.11
				c-26.88-0.17-48.01-21.36-48.19-48.33C248.75,119.68,270.11,98.6,298.4,98.81 M298.96,130.24c-6.33,7.82-13.1,12.56-12.87,16.94
				c0.22,4.32,7.06,10.5,11.92,11.55c3.09,0.67,10.9-6.35,11.12-10.25C309.41,143.71,303.97,138.61,298.96,130.24"/>
			<path class="st1" d="M703.22,195.98c-27.16,0.46-49.83-21.05-50.62-48.01c-0.78-26.84,21.41-49.09,49.08-49.19
				c27.18-0.1,48.27,19.94,49.16,46.69C751.74,172.88,730.39,195.53,703.22,195.98 M719.8,147.73
				c-8.44-5.93-13.13-11.73-17.98-11.87c-4.07-0.12-8.33,6.37-12.5,9.93c3.92,4.51,7.31,11.79,11.94,12.7
				C705.44,159.32,710.99,153.19,719.8,147.73"/>
			<path class="st1" d="M495.69,824.92c-13.47-20.84-28.64-40.8-39.87-62.78c-9.26-18.13-0.38-40.53,16.41-52.74
				c17.04-12.39,38.79-12.37,55.73,0.05c16.5,12.09,25.2,34.73,15.87,52.92c-11.26,21.94-26.45,41.85-39.93,62.63
				C501.16,824.98,498.43,824.95,495.69,824.92"/>
			<path class="st1" d="M217.91,666.37c7.63-32.9,15.98-58.47,35.78-78.23c14.67-14.63,32.78-16.64,51.32-7.62
				c18.45,8.98,27.48,24.8,27.14,45.01c-0.34,19.52-14.57,39.99-33.54,41.82C273.03,669.82,246.94,667,217.91,666.37"/>
			<path class="st1" d="M729.43,671.13c-46.64,0.59-72.31-32.09-57.83-66.3c13.87-32.74,56.83-40.69,78.15-12.43
				c12.53,16.61,19.86,37.39,27.89,56.96c1.37,3.36-4.56,13.53-8.72,14.69C754.28,668.09,738.94,669.58,729.43,671.13"/>
			<path class="st1" d="M719.96,421.06c-29.58-0.13-50.86-20.08-52.24-44.47c-1.42-24.94,16.42-47.81,41.74-48.96
				c20.22-0.92,40.71,2.3,60.94,4.82c3.38,0.42,9.28,7.57,8.56,9.98c-7.92,26.66-15.24,54.21-39.54,71.45
				C732.78,418.58,723.66,419.76,719.96,421.06"/>
			<path class="st1" d="M276.89,420.91c-4.46-2.35-18.24-4.98-22.95-12.99c-13.1-22.3-22.44-46.83-33.26-70.47
				c22.99-3.48,45.99-9.67,68.98-9.7c25.7-0.03,43.99,23.3,42.67,48.03C330.97,401.32,309.14,421.53,276.89,420.91"/>
			<path class="st1" d="M503.98,172.59c13.17,19.55,28,38.22,39.01,58.92c10.24,19.24,2.72,41.84-14.17,55.12
				c-16.37,12.87-40.81,12.94-57.29,0.15c-17.63-13.68-25.15-34.96-14.88-54.84c10.78-20.85,25.57-39.61,38.61-59.29
				C498.17,172.63,501.07,172.61,503.98,172.59"/>
			<path class="st1" d="M702.06,866.41c-5.16-7.55-11.18-12.56-10.47-16.26c0.94-4.86,7.18-8.69,11.14-12.97
				c3.94,3.84,11.21,7.86,11.02,11.48C713.48,853.73,707.65,858.5,702.06,866.41"/>
			<path class="st1" d="M112.93,498.5c-7.62,5.65-12.61,12.19-17.08,11.85c-4.3-0.32-11.15-7.73-11.19-12.07
				c-0.04-4.18,7.05-11.57,11.31-11.79C100.48,486.25,105.36,492.77,112.93,498.5"/>
			<path class="st1" d="M281.03,849.37c7.84-5.64,13.04-12.24,17.49-11.76c4.18,0.45,7.57,8.36,11.3,12.99
				c-4.54,3.56-8.83,9.37-13.72,9.94C292.37,860.98,287.88,854.75,281.03,849.37"/>
			<path class="st1" d="M920.96,499.9c-8.63,5.12-14.49,11.25-18.34,10.17c-4.56-1.28-9.41-8.49-10.14-13.7
				c-0.39-2.81,7.85-9.84,11.67-9.47C908.92,487.36,913.15,493.48,920.96,499.9"/>
			<path class="st1" d="M298.96,130.24c5.01,8.37,10.44,13.48,10.17,18.25c-0.22,3.89-8.03,10.91-11.12,10.25
				c-4.86-1.05-11.69-7.24-11.92-11.55C285.86,142.8,292.64,138.05,298.96,130.24"/>
			<path class="st1" d="M719.8,147.73c-8.81,5.46-14.36,11.59-18.55,10.77c-4.63-0.91-8.02-8.19-11.94-12.7
				c4.17-3.56,8.43-10.05,12.5-9.93C706.67,136,711.36,141.8,719.8,147.73"/>
			<path class="st2" d="M415.38,476.62c-16.01,6.55-31.8,13.84-48.21,19.13c-3.93,1.27-10.81-3.13-14.9-6.62
				c-8.13-6.92-14.94-15.36-22.87-22.54c-13.67-12.35-29.81-13.69-44.25-4.37c-13.24,8.56-19.47,24.45-15.46,39.46
				c4.24,15.86,18.6,28.86,35.81,26.31c28.62-4.25,58.03-8.68,84.75-19.13c60.64-23.7,119.62-51.62,179.7-76.81
				c36.91-15.47,75.05-27.06,115.72-27.17c42.3-0.12,77.99,25.74,90.24,65.53c12.2,39.64-3.06,82.48-37.51,105.32
				c-34.79,23.08-79.26,21.04-111.2-6.29c-18.37-15.71-35.44-32.95-55.72-51.96c18.58-8.5,32.02-14.77,45.58-20.8
				c9.19-4.09,16.56-1.63,23.28,5.95c6.77,7.63,14.38,14.54,21.98,21.38c13.08,11.78,29.23,13.5,43.01,5
				c14.06-8.67,20.65-24.87,16.44-40.38c-4.18-15.38-17.99-28.3-34.41-25.96c-28.14,4.01-57.12,8.12-83.33,18.39
				c-63.34,24.8-125.07,53.68-187.87,79.91c-34.24,14.29-69.95,23.8-107.44,24.62c-45.56,1-82.03-26.01-94.38-69.9
				c-10.93-38.84,7.63-83.19,43.68-104.4c35.95-21.15,83.01-14.08,114.17,16.44c14.88,14.57,30.76,28.12,46.18,42.14
				C417.35,472.12,416.37,474.37,415.38,476.62"/>
			<path class="st2" d="M555.83,303.55c-22.52-22.13-41.13-40.41-59.45-58.42c-17.51,18.13-35.58,36.83-55.31,57.26
				c35.41,35.91,72.7,73.72,112.44,114.02c-19.7,7.87-35.98,14.75-52.6,20.66c-2.69,0.95-7.82-1.44-10.25-3.87
				c-43.98-44.09-87.71-88.43-130.59-131.79c45.68-45.84,91.22-91.53,137.98-138.46c6.03,5.84,13.7,13.05,21.14,20.5
				c35.09,35.17,69.88,70.63,105.33,105.42c8.4,8.25,9.85,13.37,0.5,22.15c-21.63,20.33-42.29,41.71-63.13,62.88
				c-6.99,7.1-13.02,9.33-20.24,0.18c-3.87-4.91-9.33-8.52-13.77-13.02c-18.54-18.74-20.82-14.09,0.6-35.13
				C536.73,317.83,546.39,311.2,555.83,303.55"/>
			<path class="st2" d="M356.45,686.36c18.83-17.46,38.75-35.18,57.81-53.79c26.47-25.87,26.2-26.16,51.86-0.55
				c15.01,14.97,14.99,15.68-0.45,30.96c-6.23,6.16-12.15,12.68-18.73,18.43c-6.87,6.01-7.83,10.75-0.67,17.79
				c16.24,15.98,31.68,32.79,47.94,49.79c20.54-20.89,39.1-39.75,59.47-60.47c-37.04-37.07-74.31-74.38-114.46-114.56
				c18.96-7.74,35.53-14.97,52.53-20.97c2.77-0.98,8.24,2.71,11.13,5.59c42.78,42.56,85.34,85.34,127.89,128.11
				c0.95,0.95,1.27,2.54,1.65,3.34c-46.06,45.63-91.87,91.02-137.13,135.87C451.08,781.47,405.58,735.73,356.45,686.36"/>
		</g>
	</g>
</g>
</svg>
